<svg width="590" height="276" viewBox="0 0 590 276" fill="none" xmlns="http://www.w3.org/2000/svg">
<g filter="url(#filter0_dddd_2002_183)">
<rect x="51" y="18" width="487.2" height="174" rx="20" fill="black"/>
<path d="M166.136 105.33C166.224 98.4595 169.893 91.9586 175.713 88.3601C172.042 83.0864 165.892 79.7428 159.493 79.5415C152.669 78.8211 146.053 83.6483 142.575 83.6483C139.03 83.6483 133.676 79.613 127.91 79.7323C120.395 79.9765 113.389 84.2736 109.732 90.8813C101.873 104.567 107.735 124.679 115.264 135.741C119.031 141.158 123.434 147.209 129.194 146.994C134.831 146.759 136.936 143.38 143.741 143.38C150.482 143.38 152.457 146.994 158.335 146.858C164.383 146.759 168.194 141.417 171.829 135.949C174.536 132.089 176.618 127.824 178 123.31C170.892 120.286 166.145 113.092 166.136 105.33Z" fill="white"/>
<path d="M155.035 72.2665C158.333 68.2848 159.958 63.167 159.564 58C154.525 58.5322 149.871 60.9541 146.529 64.783C143.26 68.524 141.559 73.5517 141.881 78.5212C146.921 78.5734 151.876 76.2173 155.035 72.2665Z" fill="white"/>
<path d="M205.65 80V65.9082H210.719C212.118 65.9082 213.313 66.1849 214.303 66.7383C215.292 67.2852 216.048 68.0827 216.568 69.1309C217.096 70.1725 217.359 71.4323 217.359 72.9102V72.9297C217.359 74.4206 217.096 75.6934 216.568 76.748C216.048 77.8027 215.292 78.61 214.303 79.1699C213.32 79.7233 212.125 80 210.719 80H205.65ZM207.848 78.1055H210.484C211.467 78.1055 212.304 77.9069 212.994 77.5098C213.691 77.1061 214.218 76.5202 214.576 75.752C214.941 74.9772 215.123 74.0462 215.123 72.959V72.9395C215.123 71.8522 214.941 70.9277 214.576 70.166C214.212 69.3978 213.681 68.8118 212.984 68.4082C212.294 68.0046 211.461 67.8027 210.484 67.8027H207.848V78.1055ZM224.322 80.2051C223.294 80.2051 222.408 79.9837 221.666 79.541C220.93 79.0983 220.364 78.4701 219.967 77.6562C219.57 76.8424 219.371 75.8789 219.371 74.7656V74.7559C219.371 73.6556 219.57 72.6953 219.967 71.875C220.364 71.0547 220.924 70.4167 221.646 69.9609C222.376 69.4987 223.232 69.2676 224.215 69.2676C225.198 69.2676 226.044 69.4889 226.754 69.9316C227.464 70.3743 228.007 70.9928 228.385 71.7871C228.769 72.5749 228.961 73.4961 228.961 74.5508V75.293H220.445V73.7793H227.916L226.891 75.1758V74.3457C226.891 73.5905 226.777 72.9688 226.549 72.4805C226.321 71.9857 226.005 71.6178 225.602 71.377C225.204 71.1296 224.745 71.0059 224.225 71.0059C223.704 71.0059 223.238 71.1328 222.828 71.3867C222.418 71.6406 222.092 72.0182 221.852 72.5195C221.617 73.0143 221.5 73.623 221.5 74.3457V75.1855C221.5 75.8757 221.617 76.4648 221.852 76.9531C222.086 77.4414 222.418 77.8158 222.848 78.0762C223.277 78.3366 223.785 78.4668 224.371 78.4668C224.814 78.4668 225.198 78.4017 225.523 78.2715C225.855 78.1413 226.126 77.9818 226.334 77.793C226.542 77.5977 226.689 77.3991 226.773 77.1973L226.803 77.1191H228.844L228.824 77.207C228.74 77.5716 228.583 77.9329 228.355 78.291C228.128 78.6426 227.825 78.9648 227.447 79.2578C227.076 79.5443 226.627 79.7754 226.1 79.9512C225.579 80.1204 224.986 80.2051 224.322 80.2051ZM235.123 80.2051C234.27 80.2051 233.531 80.0781 232.906 79.8242C232.281 79.5703 231.783 79.2188 231.412 78.7695C231.048 78.3138 230.833 77.7865 230.768 77.1875L230.758 77.1582H232.877L232.887 77.1875C233.017 77.6042 233.271 77.9395 233.648 78.1934C234.026 78.4408 234.531 78.5645 235.162 78.5645C235.598 78.5645 235.976 78.5059 236.295 78.3887C236.62 78.265 236.874 78.0957 237.057 77.8809C237.239 77.666 237.33 77.4154 237.33 77.1289V77.1094C237.33 76.7773 237.2 76.5007 236.939 76.2793C236.686 76.0579 236.259 75.8757 235.66 75.7324L233.98 75.3516C233.316 75.1953 232.766 74.9902 232.33 74.7363C231.894 74.4759 231.568 74.1569 231.354 73.7793C231.145 73.3952 231.041 72.946 231.041 72.4316V72.4219C231.041 71.8034 231.214 71.2598 231.559 70.791C231.91 70.3158 232.395 69.9447 233.014 69.6777C233.632 69.4043 234.339 69.2676 235.133 69.2676C235.94 69.2676 236.643 69.3978 237.242 69.6582C237.841 69.9121 238.313 70.2637 238.658 70.7129C239.003 71.1556 239.205 71.6667 239.264 72.2461V72.2852H237.242V72.2559C237.151 71.8652 236.923 71.543 236.559 71.2891C236.201 71.0352 235.722 70.9082 235.123 70.9082C234.739 70.9082 234.4 70.9668 234.107 71.084C233.814 71.2012 233.583 71.3639 233.414 71.5723C233.251 71.7806 233.17 72.028 233.17 72.3145V72.334C233.17 72.5488 233.225 72.7409 233.336 72.9102C233.447 73.0729 233.622 73.2194 233.863 73.3496C234.104 73.4733 234.417 73.5807 234.801 73.6719L236.48 74.0625C237.509 74.2969 238.264 74.6419 238.746 75.0977C239.234 75.5469 239.479 76.1523 239.479 76.9141V76.9336C239.479 77.5846 239.29 78.1576 238.912 78.6523C238.535 79.1406 238.017 79.5215 237.359 79.7949C236.708 80.0684 235.963 80.2051 235.123 80.2051ZM246.246 80.2051C245.224 80.2051 244.342 79.9837 243.6 79.541C242.857 79.0918 242.285 78.457 241.881 77.6367C241.484 76.8164 241.285 75.8431 241.285 74.7168V74.6973C241.285 73.584 241.484 72.6204 241.881 71.8066C242.285 70.9928 242.857 70.3678 243.6 69.9316C244.342 69.4889 245.221 69.2676 246.236 69.2676C247.128 69.2676 247.893 69.4271 248.531 69.7461C249.176 70.0586 249.687 70.485 250.064 71.0254C250.442 71.5658 250.673 72.1745 250.758 72.8516L250.768 72.9102H248.727L248.717 72.8711C248.6 72.3503 248.333 71.9173 247.916 71.5723C247.499 71.2207 246.943 71.0449 246.246 71.0449C245.667 71.0449 245.169 71.1914 244.752 71.4844C244.335 71.7773 244.013 72.1973 243.785 72.7441C243.564 73.291 243.453 73.9421 243.453 74.6973V74.7168C243.453 75.4915 243.567 76.1556 243.795 76.709C244.023 77.2624 244.345 77.6888 244.762 77.9883C245.178 78.2812 245.673 78.4277 246.246 78.4277C246.91 78.4277 247.447 78.2747 247.857 77.9688C248.268 77.6628 248.551 77.2266 248.707 76.6602L248.727 76.6016H250.758L250.748 76.6797C250.631 77.3698 250.383 77.9785 250.006 78.5059C249.628 79.0332 249.124 79.4499 248.492 79.7559C247.867 80.0553 247.118 80.2051 246.246 80.2051ZM255.885 80.1855C255.208 80.1855 254.605 80.0553 254.078 79.7949C253.557 79.5345 253.144 79.1699 252.838 78.7012C252.538 78.2259 252.389 77.6693 252.389 77.0312V77.0117C252.389 76.3867 252.542 75.8529 252.848 75.4102C253.154 74.9609 253.6 74.6094 254.186 74.3555C254.771 74.0951 255.481 73.9421 256.314 73.8965L260.221 73.6621V75.1562L256.598 75.3809C255.895 75.4199 255.37 75.5729 255.025 75.8398C254.68 76.1068 254.508 76.4714 254.508 76.9336V76.9531C254.508 77.4349 254.69 77.8125 255.055 78.0859C255.419 78.3529 255.888 78.4863 256.461 78.4863C256.975 78.4863 257.438 78.3822 257.848 78.1738C258.258 77.959 258.58 77.6725 258.814 77.3145C259.049 76.9564 259.166 76.5495 259.166 76.0938V72.8223C259.166 72.2493 258.984 71.8066 258.619 71.4941C258.261 71.1816 257.734 71.0254 257.037 71.0254C256.438 71.0254 255.953 71.1361 255.582 71.3574C255.211 71.5723 254.967 71.8717 254.85 72.2559L254.83 72.3047H252.799L252.809 72.2168C252.887 71.6374 253.111 71.1263 253.482 70.6836C253.86 70.2409 254.355 69.8958 254.967 69.6484C255.585 69.3945 256.301 69.2676 257.115 69.2676C257.994 69.2676 258.743 69.4108 259.361 69.6973C259.986 69.9772 260.462 70.3809 260.787 70.9082C261.113 71.429 261.275 72.054 261.275 72.7832V80H259.166V78.4668H259.029C258.821 78.8249 258.561 79.1341 258.248 79.3945C257.936 79.6484 257.581 79.8438 257.184 79.9805C256.786 80.1172 256.354 80.1855 255.885 80.1855ZM257.789 68.0859H256.148L257.867 64.7852H260.074L257.789 68.0859ZM264.039 80V69.4727H266.168V71.1133H266.305C266.487 70.5339 266.809 70.0846 267.271 69.7656C267.734 69.4466 268.303 69.2871 268.98 69.2871C269.15 69.2871 269.312 69.2969 269.469 69.3164C269.632 69.3359 269.762 69.3555 269.859 69.375V71.3379C269.697 71.2988 269.524 71.2695 269.342 71.25C269.16 71.224 268.967 71.2109 268.766 71.2109C268.245 71.2109 267.789 71.3151 267.398 71.5234C267.008 71.7253 266.705 72.015 266.49 72.3926C266.275 72.7637 266.168 73.2031 266.168 73.7109V80H264.039ZM275.895 83.7109C275.003 83.7109 274.228 83.5872 273.57 83.3398C272.913 83.0924 272.389 82.7507 271.998 82.3145C271.614 81.8783 271.376 81.3737 271.285 80.8008V80.7617H273.424L273.443 80.791C273.541 81.1491 273.801 81.4421 274.225 81.6699C274.654 81.8978 275.217 82.0117 275.914 82.0117C276.78 82.0117 277.454 81.8099 277.936 81.4062C278.417 81.0091 278.658 80.4492 278.658 79.7266V77.8027H278.521C278.313 78.1868 278.046 78.5156 277.721 78.7891C277.402 79.056 277.034 79.2611 276.617 79.4043C276.201 79.541 275.748 79.6094 275.26 79.6094C274.368 79.6094 273.593 79.3945 272.936 78.9648C272.285 78.5286 271.78 77.9264 271.422 77.1582C271.064 76.39 270.885 75.498 270.885 74.4824V74.4629C270.885 73.4408 271.064 72.5423 271.422 71.7676C271.786 70.9863 272.298 70.3776 272.955 69.9414C273.613 69.5052 274.394 69.2871 275.299 69.2871C275.794 69.2871 276.246 69.3652 276.656 69.5215C277.073 69.6777 277.438 69.9023 277.75 70.1953C278.069 70.4818 278.333 70.8236 278.541 71.2207H278.648V69.4727H280.768V79.7656C280.768 80.5664 280.569 81.2598 280.172 81.8457C279.775 82.4382 279.212 82.8971 278.482 83.2227C277.753 83.5482 276.891 83.7109 275.895 83.7109ZM275.846 77.8613C276.432 77.8613 276.936 77.7214 277.359 77.4414C277.783 77.1549 278.108 76.7578 278.336 76.25C278.57 75.7422 278.688 75.1562 278.688 74.4922V74.4727C278.688 73.8021 278.57 73.2129 278.336 72.7051C278.108 72.1973 277.783 71.8034 277.359 71.5234C276.936 71.237 276.432 71.0938 275.846 71.0938C275.26 71.0938 274.758 71.237 274.342 71.5234C273.925 71.8034 273.606 72.1973 273.385 72.7051C273.163 73.2129 273.053 73.8021 273.053 74.4727V74.4824C273.053 75.1595 273.163 75.752 273.385 76.2598C273.606 76.7611 273.925 77.1549 274.342 77.4414C274.758 77.7214 275.26 77.8613 275.846 77.8613ZM286.529 80.1855C285.852 80.1855 285.25 80.0553 284.723 79.7949C284.202 79.5345 283.788 79.1699 283.482 78.7012C283.183 78.2259 283.033 77.6693 283.033 77.0312V77.0117C283.033 76.3867 283.186 75.8529 283.492 75.4102C283.798 74.9609 284.244 74.6094 284.83 74.3555C285.416 74.0951 286.126 73.9421 286.959 73.8965L290.865 73.6621V75.1562L287.242 75.3809C286.539 75.4199 286.015 75.5729 285.67 75.8398C285.325 76.1068 285.152 76.4714 285.152 76.9336V76.9531C285.152 77.4349 285.335 77.8125 285.699 78.0859C286.064 78.3529 286.533 78.4863 287.105 78.4863C287.62 78.4863 288.082 78.3822 288.492 78.1738C288.902 77.959 289.225 77.6725 289.459 77.3145C289.693 76.9564 289.811 76.5495 289.811 76.0938V72.8223C289.811 72.2493 289.628 71.8066 289.264 71.4941C288.906 71.1816 288.378 71.0254 287.682 71.0254C287.083 71.0254 286.598 71.1361 286.227 71.3574C285.855 71.5723 285.611 71.8717 285.494 72.2559L285.475 72.3047H283.443L283.453 72.2168C283.531 71.6374 283.756 71.1263 284.127 70.6836C284.505 70.2409 284.999 69.8958 285.611 69.6484C286.23 69.3945 286.946 69.2676 287.76 69.2676C288.639 69.2676 289.387 69.4108 290.006 69.6973C290.631 69.9772 291.106 70.3809 291.432 70.9082C291.757 71.429 291.92 72.054 291.92 72.7832V80H289.811V78.4668H289.674C289.465 78.8249 289.205 79.1341 288.893 79.3945C288.58 79.6484 288.225 79.8438 287.828 79.9805C287.431 80.1172 286.998 80.1855 286.529 80.1855ZM294.781 80V65.3906H296.9V80H294.781ZM304.303 80.2051C303.281 80.2051 302.395 79.987 301.646 79.5508C300.898 79.1081 300.322 78.4798 299.918 77.666C299.514 76.8457 299.312 75.8724 299.312 74.7461V74.7266C299.312 73.5938 299.514 72.6204 299.918 71.8066C300.328 70.9928 300.904 70.3678 301.646 69.9316C302.395 69.4889 303.277 69.2676 304.293 69.2676C305.322 69.2676 306.207 69.4889 306.949 69.9316C307.691 70.3678 308.264 70.9928 308.668 71.8066C309.078 72.6204 309.283 73.5938 309.283 74.7266V74.7461C309.283 75.8724 309.081 76.8457 308.678 77.666C308.274 78.4798 307.698 79.1081 306.949 79.5508C306.207 79.987 305.325 80.2051 304.303 80.2051ZM304.303 78.4277C304.895 78.4277 305.4 78.2812 305.816 77.9883C306.233 77.6953 306.552 77.2754 306.773 76.7285C307.001 76.1816 307.115 75.5208 307.115 74.7461V74.7266C307.115 73.9453 307.001 73.2812 306.773 72.7344C306.552 72.1875 306.23 71.7708 305.807 71.4844C305.39 71.1914 304.885 71.0449 304.293 71.0449C303.707 71.0449 303.202 71.1914 302.779 71.4844C302.363 71.7708 302.04 72.1875 301.812 72.7344C301.591 73.2812 301.48 73.9453 301.48 74.7266V74.7461C301.48 75.5208 301.591 76.1849 301.812 76.7383C302.04 77.2852 302.363 77.7051 302.779 77.998C303.202 78.2845 303.71 78.4277 304.303 78.4277ZM321.158 80.2051C320.13 80.2051 319.244 79.9837 318.502 79.541C317.766 79.0983 317.2 78.4701 316.803 77.6562C316.406 76.8424 316.207 75.8789 316.207 74.7656V74.7559C316.207 73.6556 316.406 72.6953 316.803 71.875C317.2 71.0547 317.76 70.4167 318.482 69.9609C319.212 69.4987 320.068 69.2676 321.051 69.2676C322.034 69.2676 322.88 69.4889 323.59 69.9316C324.299 70.3743 324.843 70.9928 325.221 71.7871C325.605 72.5749 325.797 73.4961 325.797 74.5508V75.293H317.281V73.7793H324.752L323.727 75.1758V74.3457C323.727 73.5905 323.613 72.9688 323.385 72.4805C323.157 71.9857 322.841 71.6178 322.438 71.377C322.04 71.1296 321.581 71.0059 321.061 71.0059C320.54 71.0059 320.074 71.1328 319.664 71.3867C319.254 71.6406 318.928 72.0182 318.688 72.5195C318.453 73.0143 318.336 73.623 318.336 74.3457V75.1855C318.336 75.8757 318.453 76.4648 318.688 76.9531C318.922 77.4414 319.254 77.8158 319.684 78.0762C320.113 78.3366 320.621 78.4668 321.207 78.4668C321.65 78.4668 322.034 78.4017 322.359 78.2715C322.691 78.1413 322.962 77.9818 323.17 77.793C323.378 77.5977 323.525 77.3991 323.609 77.1973L323.639 77.1191H325.68L325.66 77.207C325.576 77.5716 325.419 77.9329 325.191 78.291C324.964 78.6426 324.661 78.9648 324.283 79.2578C323.912 79.5443 323.463 79.7754 322.936 79.9512C322.415 80.1204 321.822 80.2051 321.158 80.2051ZM328.102 80V69.4727H330.23V71.0645H330.367C330.628 70.5111 331.012 70.0749 331.52 69.7559C332.034 69.4303 332.678 69.2676 333.453 69.2676C334.632 69.2676 335.533 69.6094 336.158 70.293C336.79 70.9766 337.105 71.9401 337.105 73.1836V80H334.986V73.6621C334.986 72.8027 334.801 72.1582 334.43 71.7285C334.059 71.2988 333.489 71.084 332.721 71.084C332.213 71.084 331.77 71.1979 331.393 71.4258C331.021 71.6471 330.735 71.9629 330.533 72.373C330.331 72.7832 330.23 73.2682 330.23 73.8281V80H328.102ZM349.4 80.2051C348.372 80.2051 347.486 79.9837 346.744 79.541C346.008 79.0983 345.442 78.4701 345.045 77.6562C344.648 76.8424 344.449 75.8789 344.449 74.7656V74.7559C344.449 73.6556 344.648 72.6953 345.045 71.875C345.442 71.0547 346.002 70.4167 346.725 69.9609C347.454 69.4987 348.31 69.2676 349.293 69.2676C350.276 69.2676 351.122 69.4889 351.832 69.9316C352.542 70.3743 353.085 70.9928 353.463 71.7871C353.847 72.5749 354.039 73.4961 354.039 74.5508V75.293H345.523V73.7793H352.994L351.969 75.1758V74.3457C351.969 73.5905 351.855 72.9688 351.627 72.4805C351.399 71.9857 351.083 71.6178 350.68 71.377C350.283 71.1296 349.824 71.0059 349.303 71.0059C348.782 71.0059 348.316 71.1328 347.906 71.3867C347.496 71.6406 347.171 72.0182 346.93 72.5195C346.695 73.0143 346.578 73.623 346.578 74.3457V75.1855C346.578 75.8757 346.695 76.4648 346.93 76.9531C347.164 77.4414 347.496 77.8158 347.926 78.0762C348.355 78.3366 348.863 78.4668 349.449 78.4668C349.892 78.4668 350.276 78.4017 350.602 78.2715C350.934 78.1413 351.204 77.9818 351.412 77.793C351.62 77.5977 351.767 77.3991 351.852 77.1973L351.881 77.1191H353.922L353.902 77.207C353.818 77.5716 353.661 77.9329 353.434 78.291C353.206 78.6426 352.903 78.9648 352.525 79.2578C352.154 79.5443 351.705 79.7754 351.178 79.9512C350.657 80.1204 350.064 80.2051 349.4 80.2051ZM356.441 80V65.3906H358.561V80H356.441Z" fill="white"/>
<path d="M204.635 135L217.452 99.7705H223.36L236.153 135H230.416L227.193 125.479H213.619L210.372 135H204.635ZM220.357 105.605L215.084 121.084H225.704L220.455 105.605H220.357ZM239.425 143.545V109.316H244.698V113.735H244.82C246.358 110.684 249.19 108.828 252.853 108.828C259.396 108.828 263.595 113.955 263.595 122.158V122.183C263.595 130.361 259.371 135.513 252.926 135.513C249.288 135.513 246.334 133.657 244.82 130.679H244.698V143.545H239.425ZM251.485 130.972C255.636 130.972 258.224 127.603 258.224 122.183V122.158C258.224 116.689 255.611 113.345 251.485 113.345C247.481 113.345 244.674 116.812 244.674 122.158V122.183C244.674 127.505 247.506 130.972 251.485 130.972ZM267.696 143.545V109.316H272.97V113.735H273.092C274.63 110.684 277.462 108.828 281.124 108.828C287.667 108.828 291.866 113.955 291.866 122.158V122.183C291.866 130.361 287.643 135.513 281.197 135.513C277.56 135.513 274.605 133.657 273.092 130.679H272.97V143.545H267.696ZM279.757 130.972C283.907 130.972 286.495 127.603 286.495 122.183V122.158C286.495 116.689 283.883 113.345 279.757 113.345C275.753 113.345 272.945 116.812 272.945 122.158V122.183C272.945 127.505 275.777 130.972 279.757 130.972ZM318.771 135.586C310.86 135.586 305.636 131.826 305.196 125.625L305.172 125.259H310.494L310.543 125.576C311.031 128.823 314.278 130.85 318.99 130.85C323.702 130.85 326.681 128.726 326.681 125.43V125.405C326.681 122.573 324.752 121.035 320.089 120.01L316.256 119.204C309.347 117.739 306.002 114.565 306.002 109.341V109.316C306.026 103.311 311.324 99.1846 318.771 99.1846C326.119 99.1846 331.148 103.188 331.515 109.097L331.539 109.512H326.217L326.192 109.17C325.704 105.898 322.872 103.921 318.697 103.921C314.327 103.945 311.544 106.021 311.544 109.097V109.121C311.544 111.758 313.546 113.369 317.94 114.321L321.798 115.127C329.073 116.665 332.198 119.619 332.198 125.063V125.088C332.198 131.509 327.12 135.586 318.771 135.586ZM345.504 135.513C340.426 135.513 337.984 133.364 337.984 128.237V113.516H334.298V109.316H337.984V102.627H343.38V109.316H348.189V113.516H343.38V127.92C343.38 130.532 344.552 131.313 346.773 131.313C347.335 131.313 347.799 131.265 348.189 131.216V135.293C347.579 135.391 346.578 135.513 345.504 135.513ZM362.96 135.513C355.587 135.513 350.777 130.41 350.777 122.158V122.109C350.777 113.906 355.636 108.828 362.936 108.828C370.26 108.828 375.143 113.882 375.143 122.109V122.158C375.143 130.435 370.309 135.513 362.96 135.513ZM362.984 131.094C367.11 131.094 369.747 127.822 369.747 122.158V122.109C369.747 116.494 367.062 113.247 362.936 113.247C358.883 113.247 356.173 116.494 356.173 122.109V122.158C356.173 127.847 358.858 131.094 362.984 131.094ZM379.22 135V109.316H384.493V113.711H384.615C385.445 110.708 387.594 108.828 390.523 108.828C391.28 108.828 391.939 108.95 392.354 109.023V113.931C391.939 113.76 391.012 113.638 389.986 113.638C386.593 113.638 384.493 115.859 384.493 119.692V135H379.22ZM405.465 135.513C397.921 135.513 393.355 130.361 393.355 122.256V122.231C393.355 114.199 397.994 108.828 405.196 108.828C412.398 108.828 416.817 114.004 416.817 121.719V123.501H398.629C398.727 128.359 401.388 131.191 405.587 131.191C408.712 131.191 410.787 129.58 411.446 127.651L411.52 127.456H416.524L416.476 127.725C415.646 131.802 411.69 135.513 405.465 135.513ZM405.221 113.149C401.803 113.149 399.166 115.469 398.702 119.766H411.593C411.153 115.322 408.663 113.149 405.221 113.149Z" fill="white"/>
</g>
<defs>
<filter id="filter0_dddd_2002_183" x="0" y="0" width="589.2" height="276" filterUnits="userSpaceOnUse" color-interpolation-filters="sRGB">
<feFlood flood-opacity="0" result="BackgroundImageFix"/>
<feColorMatrix in="SourceAlpha" type="matrix" values="0 0 0 0 0 0 0 0 0 0 0 0 0 0 0 0 0 0 127 0" result="hardAlpha"/>
<feOffset dy="1.4945"/>
<feGaussianBlur stdDeviation="1.15484"/>
<feColorMatrix type="matrix" values="0 0 0 0 0 0 0 0 0 0 0 0 0 0 0 0 0 0 0.0268173 0"/>
<feBlend mode="normal" in2="BackgroundImageFix" result="effect1_dropShadow_2002_183"/>
<feColorMatrix in="SourceAlpha" type="matrix" values="0 0 0 0 0 0 0 0 0 0 0 0 0 0 0 0 0 0 127 0" result="hardAlpha"/>
<feOffset dy="4.13211"/>
<feGaussianBlur stdDeviation="3.193"/>
<feColorMatrix type="matrix" values="0 0 0 0 0 0 0 0 0 0 0 0 0 0 0 0 0 0 0.0399899 0"/>
<feBlend mode="normal" in2="effect1_dropShadow_2002_183" result="effect2_dropShadow_2002_183"/>
<feColorMatrix in="SourceAlpha" type="matrix" values="0 0 0 0 0 0 0 0 0 0 0 0 0 0 0 0 0 0 127 0" result="hardAlpha"/>
<feOffset dy="9.94853"/>
<feGaussianBlur stdDeviation="7.6875"/>
<feColorMatrix type="matrix" values="0 0 0 0 0 0 0 0 0 0 0 0 0 0 0 0 0 0 0.0582218 0"/>
<feBlend mode="normal" in2="effect2_dropShadow_2002_183" result="effect3_dropShadow_2002_183"/>
<feColorMatrix in="SourceAlpha" type="matrix" values="0 0 0 0 0 0 0 0 0 0 0 0 0 0 0 0 0 0 127 0" result="hardAlpha"/>
<feOffset dy="33"/>
<feGaussianBlur stdDeviation="25.5"/>
<feColorMatrix type="matrix" values="0 0 0 0 0 0 0 0 0 0 0 0 0 0 0 0 0 0 0.08 0"/>
<feBlend mode="normal" in2="effect3_dropShadow_2002_183" result="effect4_dropShadow_2002_183"/>
<feBlend mode="normal" in="SourceGraphic" in2="effect4_dropShadow_2002_183" result="shape"/>
</filter>
</defs>
</svg>
