<svg width="590" height="276" viewBox="0 0 590 276" fill="none" xmlns="http://www.w3.org/2000/svg">
<g filter="url(#filter0_dddd_2002_173)">
<rect x="51" y="18" width="487.2" height="174" rx="20" fill="black"/>
<g filter="url(#filter1_ii_2002_173)">
<path d="M111.564 61.3582C110.581 62.412 110 64.0474 110 66.1653V141.832C110 143.953 110.581 145.585 111.564 146.639L111.814 146.885L153.666 104.498V103.999V103.499L111.814 61.1085L111.564 61.3582Z" fill="url(#paint0_linear_2002_173)"/>
<path d="M167.614 118.632L153.666 104.498V103.999V103.499L167.617 89.3688L167.931 89.5501L184.461 99.0615C189.18 101.778 189.18 106.222 184.461 108.942L167.931 118.454L167.614 118.632Z" fill="url(#paint1_linear_2002_173)"/>
<g filter="url(#filter2_i_2002_173)">
<path d="M167.931 118.451L153.662 103.999L111.564 146.639C113.118 148.309 115.689 148.514 118.584 146.852L167.931 118.451Z" fill="url(#paint2_linear_2002_173)"/>
</g>
<path d="M167.931 89.5471L118.584 61.1498C115.689 59.4836 113.118 59.6923 111.564 61.362L153.666 104.002L167.931 89.5471Z" fill="url(#paint3_linear_2002_173)"/>
</g>
<path d="M205.55 80V65.68H210.11C212.297 65.68 214.053 66.3333 215.38 67.64C216.707 68.9467 217.37 70.6733 217.37 72.82C217.37 74.98 216.707 76.7167 215.38 78.03C214.053 79.3433 212.297 80 210.11 80H205.55ZM207.74 77.98H210.05C211.637 77.9867 212.883 77.5367 213.79 76.63C214.703 75.7167 215.16 74.45 215.16 72.83C215.16 71.2167 214.703 69.9633 213.79 69.07C212.877 68.1767 211.63 67.73 210.05 67.73H207.74V77.98ZM219.749 80V65.68H221.949V80H219.749ZM229.202 80.33C228.355 80.33 227.602 80.1933 226.942 79.92C226.288 79.64 225.752 79.26 225.332 78.78C224.912 78.3 224.592 77.7933 224.372 77.26C224.158 76.7267 224.052 76.46 224.052 76.46L226.032 75.65C226.032 75.65 226.115 75.8533 226.282 76.26C226.448 76.6667 226.672 77.0333 226.952 77.36C227.238 77.6867 227.582 77.94 227.982 78.12C228.382 78.2933 228.832 78.38 229.332 78.38C230.125 78.38 230.768 78.1733 231.262 77.76C231.755 77.34 232.002 76.7933 232.002 76.12C232.002 75.5733 231.775 75.0967 231.322 74.69C230.875 74.2767 230.018 73.8633 228.752 73.45C227.205 72.93 226.122 72.3367 225.502 71.67C224.888 71.0033 224.582 70.19 224.582 69.23C224.582 68.1367 225.012 67.2167 225.872 66.47C226.738 65.7233 227.845 65.35 229.192 65.35C229.918 65.35 230.565 65.4567 231.132 65.67C231.705 65.8833 232.195 66.1867 232.602 66.58C233.008 66.9733 233.302 67.36 233.482 67.74C233.668 68.12 233.762 68.31 233.762 68.31L231.842 69.12C231.842 69.12 231.785 69.0067 231.672 68.78C231.558 68.5467 231.375 68.3067 231.122 68.06C230.875 67.8133 230.585 67.6267 230.252 67.5C229.925 67.3667 229.548 67.3 229.122 67.3C228.428 67.3 227.858 67.47 227.412 67.81C226.972 68.1433 226.752 68.5867 226.752 69.14C226.752 69.6 226.935 70.01 227.302 70.37C227.668 70.73 228.598 71.1567 230.092 71.65C231.472 72.0967 232.492 72.6867 233.152 73.42C233.818 74.1467 234.152 75.0267 234.152 76.06C234.152 77.3733 233.688 78.4133 232.762 79.18C231.835 79.9467 230.648 80.33 229.202 80.33ZM236.37 80V65.68H241.39C242.81 65.68 243.957 66.1133 244.83 66.98C245.704 67.8467 246.14 68.9867 246.14 70.4C246.14 71.8067 245.69 72.92 244.79 73.74C243.89 74.56 242.734 74.97 241.32 74.97H237.55V73.04H241.26C242.06 73.04 242.707 72.8 243.2 72.32C243.694 71.8333 243.94 71.2 243.94 70.42C243.94 69.62 243.7 68.9667 243.22 68.46C242.747 67.9467 242.12 67.69 241.34 67.69H238.56V80H236.37ZM254.915 80.33C252.848 80.33 251.102 79.6167 249.675 78.19C248.255 76.7633 247.545 74.97 247.545 72.81C247.545 70.6567 248.258 68.8767 249.685 67.47C251.118 66.0567 252.862 65.35 254.915 65.35C256.968 65.35 258.712 66.0567 260.145 67.47C261.578 68.8767 262.295 70.66 262.295 72.82C262.295 74.96 261.582 76.7467 260.155 78.18C258.735 79.6133 256.988 80.33 254.915 80.33ZM254.915 78.23C256.388 78.23 257.618 77.72 258.605 76.7C259.592 75.6733 260.085 74.38 260.085 72.82C260.085 71.2467 259.588 69.96 258.595 68.96C257.602 67.9533 256.375 67.45 254.915 67.45C253.455 67.45 252.228 67.9533 251.235 68.96C250.242 69.9667 249.745 71.2533 249.745 72.82C249.745 74.38 250.238 75.6733 251.225 76.7C252.212 77.72 253.442 78.23 254.915 78.23ZM264.671 80V65.68H267.131L273.821 76.24H273.891L273.811 73.6V65.68H275.961V80H273.851L266.811 68.96H266.751L266.821 71.59V80H264.671ZM279.066 80V65.68H281.266V80H279.066ZM284.378 80V65.68H289.858C291.011 65.68 291.988 66.0433 292.788 66.77C293.595 67.49 293.998 68.3933 293.998 69.48C293.998 70.1933 293.818 70.8167 293.458 71.35C293.105 71.8767 292.621 72.28 292.008 72.56V72.64C292.748 72.8667 293.345 73.2767 293.798 73.87C294.258 74.4567 294.488 75.14 294.488 75.92C294.488 77.08 294.071 78.05 293.238 78.83C292.405 79.61 291.378 80 290.158 80H284.378ZM286.568 78.08H289.998C290.638 78.08 291.178 77.86 291.618 77.42C292.065 76.9733 292.288 76.4367 292.288 75.81C292.288 75.1833 292.055 74.6567 291.588 74.23C291.128 73.8033 290.571 73.59 289.918 73.59H285.768V71.79H289.648C290.281 71.79 290.808 71.5867 291.228 71.18C291.655 70.7667 291.868 70.2733 291.868 69.7C291.868 69.1267 291.661 68.6367 291.248 68.23C290.835 67.8233 290.321 67.62 289.708 67.62H286.568V78.08ZM296.78 80V65.68H298.97V77.94H305.17V80H296.78ZM307.288 80V65.68H315.628V67.74H309.448V77.94H315.738V80H307.288ZM308.468 73.8V71.88H315.308V73.8H308.468ZM323.07 80V65.68H331.41V67.74H325.23V77.94H331.52V80H323.07ZM324.25 73.8V71.88H331.09V73.8H324.25ZM334.378 80V65.68H336.838L343.528 76.24H343.598L343.518 73.6V65.68H345.668V80H343.558L336.518 68.96H336.458L336.528 71.59V80H334.378Z" fill="white"/>
<path d="M222.408 136.586C212.325 136.586 205.978 129.555 205.978 118.227V118.202C205.978 107.094 212.325 100.185 222.335 100.185C230.587 100.185 235.763 104.945 237.228 111.293L237.325 111.732H231.71L231.637 111.464C230.147 107.387 226.949 105.019 222.359 105.019C215.621 105.019 211.544 109.926 211.544 118.178V118.202C211.544 126.625 215.743 131.752 222.457 131.752C228.17 131.752 232.125 128.139 232.198 122.792V122.206H222.945V117.738H237.594V121.352C237.594 130.897 231.954 136.586 222.408 136.586ZM253.341 136.513C245.968 136.513 241.158 131.41 241.158 123.158V123.109C241.158 114.906 246.017 109.828 253.316 109.828C260.641 109.828 265.523 114.882 265.523 123.109V123.158C265.523 131.435 260.689 136.513 253.341 136.513ZM253.365 132.094C257.491 132.094 260.128 128.822 260.128 123.158V123.109C260.128 117.494 257.442 114.247 253.316 114.247C249.264 114.247 246.554 117.494 246.554 123.109V123.158C246.554 128.847 249.239 132.094 253.365 132.094ZM280.636 136.513C273.263 136.513 268.453 131.41 268.453 123.158V123.109C268.453 114.906 273.312 109.828 280.611 109.828C287.936 109.828 292.818 114.882 292.818 123.109V123.158C292.818 131.435 287.984 136.513 280.636 136.513ZM280.66 132.094C284.786 132.094 287.423 128.822 287.423 123.158V123.109C287.423 117.494 284.737 114.247 280.611 114.247C276.559 114.247 273.849 117.494 273.849 123.109V123.158C273.849 128.847 276.534 132.094 280.66 132.094ZM308.15 145.058C301.559 145.058 297.384 142.006 296.603 138.075L296.578 137.855H301.803L301.9 138.051C302.608 139.687 304.83 140.81 308.126 140.81C312.325 140.81 314.645 138.563 314.645 134.975V131.459H314.522C313.058 134.242 310.128 136.024 306.441 136.024C299.996 136.024 295.748 130.971 295.748 122.963V122.938C295.748 114.882 300.045 109.828 306.563 109.828C310.177 109.828 313.009 111.781 314.522 114.687H314.645V110.316H319.942V135.292C319.942 141.151 315.401 145.058 308.15 145.058ZM307.931 131.728C311.959 131.728 314.645 128.334 314.645 123.036V123.012C314.645 117.738 311.935 114.345 307.931 114.345C303.756 114.345 301.144 117.714 301.144 123.012V123.036C301.144 128.407 303.756 131.728 307.931 131.728ZM325.362 136V100.771H330.636V136H325.362ZM347.018 136.513C339.474 136.513 334.908 131.361 334.908 123.256V123.231C334.908 115.199 339.547 109.828 346.749 109.828C353.951 109.828 358.37 115.004 358.37 122.719V124.501H340.182C340.279 129.359 342.94 132.191 347.14 132.191C350.265 132.191 352.34 130.58 352.999 128.651L353.072 128.456H358.077L358.028 128.725C357.198 132.802 353.243 136.513 347.018 136.513ZM346.773 114.149C343.355 114.149 340.719 116.469 340.255 120.766H353.146C352.706 116.322 350.216 114.149 346.773 114.149ZM373.263 136V100.771H386.373C393.282 100.771 398.067 105.409 398.067 112.318V112.367C398.067 119.252 393.282 123.964 386.373 123.964H378.731V136H373.263ZM385.006 105.385H378.731V119.374H385.006C389.767 119.374 392.501 116.811 392.501 112.392V112.343C392.501 107.948 389.767 105.385 385.006 105.385ZM402.413 136V100.771H407.687V136H402.413ZM420.65 136.464C415.523 136.464 412.081 133.314 412.081 128.7V128.651C412.081 124.184 415.548 121.449 421.627 121.083L428.609 120.668V118.739C428.609 115.907 426.778 114.198 423.507 114.198C420.455 114.198 418.575 115.639 418.136 117.689L418.087 117.909H413.106L413.131 117.641C413.497 113.222 417.33 109.828 423.653 109.828C429.928 109.828 433.907 113.148 433.907 118.3V136H428.609V131.947H428.512C427.022 134.706 424.044 136.464 420.65 136.464ZM417.403 128.578C417.403 130.824 419.259 132.24 422.091 132.24C425.802 132.24 428.609 129.726 428.609 126.381V124.379L422.335 124.77C419.161 124.965 417.403 126.356 417.403 128.529V128.578ZM442.013 144.569C440.987 144.569 439.889 144.447 439.254 144.325V140.199C439.669 140.297 440.279 140.395 440.987 140.395C443.478 140.395 444.845 139.735 445.724 137.245L446.163 136.024L436.812 110.316H442.525L448.995 131.215H449.166L455.636 110.316H461.202L451.632 137.196C449.728 142.519 447.042 144.569 442.013 144.569Z" fill="white"/>
</g>
<defs>
<filter id="filter0_dddd_2002_173" x="0" y="0" width="589.2" height="276" filterUnits="userSpaceOnUse" color-interpolation-filters="sRGB">
<feFlood flood-opacity="0" result="BackgroundImageFix"/>
<feColorMatrix in="SourceAlpha" type="matrix" values="0 0 0 0 0 0 0 0 0 0 0 0 0 0 0 0 0 0 127 0" result="hardAlpha"/>
<feOffset dy="1.4945"/>
<feGaussianBlur stdDeviation="1.15484"/>
<feColorMatrix type="matrix" values="0 0 0 0 0 0 0 0 0 0 0 0 0 0 0 0 0 0 0.0268173 0"/>
<feBlend mode="normal" in2="BackgroundImageFix" result="effect1_dropShadow_2002_173"/>
<feColorMatrix in="SourceAlpha" type="matrix" values="0 0 0 0 0 0 0 0 0 0 0 0 0 0 0 0 0 0 127 0" result="hardAlpha"/>
<feOffset dy="4.13211"/>
<feGaussianBlur stdDeviation="3.193"/>
<feColorMatrix type="matrix" values="0 0 0 0 0 0 0 0 0 0 0 0 0 0 0 0 0 0 0.0399899 0"/>
<feBlend mode="normal" in2="effect1_dropShadow_2002_173" result="effect2_dropShadow_2002_173"/>
<feColorMatrix in="SourceAlpha" type="matrix" values="0 0 0 0 0 0 0 0 0 0 0 0 0 0 0 0 0 0 127 0" result="hardAlpha"/>
<feOffset dy="9.94853"/>
<feGaussianBlur stdDeviation="7.6875"/>
<feColorMatrix type="matrix" values="0 0 0 0 0 0 0 0 0 0 0 0 0 0 0 0 0 0 0.0582218 0"/>
<feBlend mode="normal" in2="effect2_dropShadow_2002_173" result="effect3_dropShadow_2002_173"/>
<feColorMatrix in="SourceAlpha" type="matrix" values="0 0 0 0 0 0 0 0 0 0 0 0 0 0 0 0 0 0 127 0" result="hardAlpha"/>
<feOffset dy="33"/>
<feGaussianBlur stdDeviation="25.5"/>
<feColorMatrix type="matrix" values="0 0 0 0 0 0 0 0 0 0 0 0 0 0 0 0 0 0 0.08 0"/>
<feBlend mode="normal" in2="effect3_dropShadow_2002_173" result="effect4_dropShadow_2002_173"/>
<feBlend mode="normal" in="SourceGraphic" in2="effect4_dropShadow_2002_173" result="shape"/>
</filter>
<filter id="filter1_ii_2002_173" x="110" y="60" width="78" height="88" filterUnits="userSpaceOnUse" color-interpolation-filters="sRGB">
<feFlood flood-opacity="0" result="BackgroundImageFix"/>
<feBlend mode="normal" in="SourceGraphic" in2="BackgroundImageFix" result="shape"/>
<feColorMatrix in="SourceAlpha" type="matrix" values="0 0 0 0 0 0 0 0 0 0 0 0 0 0 0 0 0 0 127 0" result="hardAlpha"/>
<feOffset dy="-0.15"/>
<feComposite in2="hardAlpha" operator="arithmetic" k2="-1" k3="1"/>
<feColorMatrix type="matrix" values="0 0 0 0 0 0 0 0 0 0 0 0 0 0 0 0 0 0 0.12 0"/>
<feBlend mode="normal" in2="shape" result="effect1_innerShadow_2002_173"/>
<feColorMatrix in="SourceAlpha" type="matrix" values="0 0 0 0 0 0 0 0 0 0 0 0 0 0 0 0 0 0 127 0" result="hardAlpha"/>
<feOffset dy="0.15"/>
<feComposite in2="hardAlpha" operator="arithmetic" k2="-1" k3="1"/>
<feColorMatrix type="matrix" values="0 0 0 0 1 0 0 0 0 1 0 0 0 0 1 0 0 0 0.25 0"/>
<feBlend mode="normal" in2="effect1_innerShadow_2002_173" result="effect2_innerShadow_2002_173"/>
</filter>
<filter id="filter2_i_2002_173" x="111.564" y="103.999" width="56.3673" height="44.001" filterUnits="userSpaceOnUse" color-interpolation-filters="sRGB">
<feFlood flood-opacity="0" result="BackgroundImageFix"/>
<feBlend mode="normal" in="SourceGraphic" in2="BackgroundImageFix" result="shape"/>
<feColorMatrix in="SourceAlpha" type="matrix" values="0 0 0 0 0 0 0 0 0 0 0 0 0 0 0 0 0 0 127 0" result="hardAlpha"/>
<feOffset dy="-0.15"/>
<feComposite in2="hardAlpha" operator="arithmetic" k2="-1" k3="1"/>
<feColorMatrix type="matrix" values="0 0 0 0 0 0 0 0 0 0 0 0 0 0 0 0 0 0 0.08 0"/>
<feBlend mode="normal" in2="shape" result="effect1_innerShadow_2002_173"/>
</filter>
<linearGradient id="paint0_linear_2002_173" x1="149.956" y1="65.3647" x2="92.5431" y2="122.052" gradientUnits="userSpaceOnUse">
<stop stop-color="#00A0FF"/>
<stop offset="0.0066" stop-color="#00A1FF"/>
<stop offset="0.2601" stop-color="#00BEFF"/>
<stop offset="0.5122" stop-color="#00D2FF"/>
<stop offset="0.7604" stop-color="#00DFFF"/>
<stop offset="1" stop-color="#00E3FF"/>
</linearGradient>
<linearGradient id="paint1_linear_2002_173" x1="190.604" y1="103.999" x2="108.867" y2="103.999" gradientUnits="userSpaceOnUse">
<stop stop-color="#FFE000"/>
<stop offset="0.4087" stop-color="#FFBD00"/>
<stop offset="0.7754" stop-color="#FFA500"/>
<stop offset="1" stop-color="#FF9C00"/>
</linearGradient>
<linearGradient id="paint2_linear_2002_173" x1="160.182" y1="111.847" x2="82.3237" y2="188.722" gradientUnits="userSpaceOnUse">
<stop stop-color="#FF3A44"/>
<stop offset="1" stop-color="#C31162"/>
</linearGradient>
<linearGradient id="paint3_linear_2002_173" x1="100.962" y1="36.1732" x2="135.728" y2="70.4999" gradientUnits="userSpaceOnUse">
<stop stop-color="#32A071"/>
<stop offset="0.0685" stop-color="#2DA771"/>
<stop offset="0.4762" stop-color="#15CF74"/>
<stop offset="0.8009" stop-color="#06E775"/>
<stop offset="1" stop-color="#00F076"/>
</linearGradient>
</defs>
</svg>
