<svg width="23" height="23" viewBox="0 0 23 23" fill="none" xmlns="http://www.w3.org/2000/svg">
<g clip-path="url(#clip0_359_3028)">
<path d="M17.0421 11.9656C17.0332 10.3313 17.7724 9.09778 19.2686 8.18935C18.4314 6.99146 17.1667 6.33239 15.4968 6.20325C13.916 6.07856 12.1882 7.12505 11.5558 7.12505C10.8878 7.12505 9.35597 6.24778 8.15362 6.24778C5.66878 6.28786 3.02808 8.22942 3.02808 12.1793C3.02808 13.3461 3.24183 14.5514 3.66933 15.7953C4.23933 17.4296 6.29667 21.4374 8.44308 21.3706C9.56526 21.3439 10.3579 20.5735 11.8185 20.5735C13.2346 20.5735 13.9694 21.3706 15.2207 21.3706C17.385 21.3394 19.2464 17.6968 19.7896 16.058C16.8862 14.6909 17.0421 12.0502 17.0421 11.9656ZM14.5216 4.65356C15.7373 3.21075 15.626 1.89708 15.5903 1.42505C14.5171 1.48739 13.2747 2.15536 12.5667 2.97919C11.7874 3.86091 11.3287 4.95192 11.4267 6.18099C12.5889 6.27005 13.6488 5.67333 14.5216 4.65356Z" fill="currentColor"/>
</g>
<defs>
<clipPath id="clip0_359_3028">
<rect width="24" height="24" fill="white" transform="scale(0.95)"/>
</clipPath>
</defs>
</svg>
