<svg width="488" height="174" viewBox="0 0 488 174" fill="none" xmlns="http://www.w3.org/2000/svg">
<rect width="487.2" height="174" rx="20" fill="#141414"/>
<path d="M115.136 89.8299C115.224 82.9595 118.893 76.4586 124.713 72.8601C121.042 67.5864 114.892 64.2428 108.493 64.0415C101.669 63.3211 95.0528 68.1483 91.5752 68.1483C88.0303 68.1483 82.676 64.113 76.9103 64.2323C69.3949 64.4765 62.3887 68.7736 58.7323 75.3813C50.8726 89.0666 56.7353 109.179 64.2643 120.241C68.0312 125.658 72.4336 131.709 78.1941 131.494C83.8311 131.259 85.9364 127.88 92.7408 127.88C99.482 127.88 101.457 131.494 107.335 131.358C113.383 131.259 117.194 125.917 120.829 120.449C123.536 116.589 125.618 112.324 127 107.81C119.892 104.786 115.145 97.5918 115.136 89.8299Z" fill="#FFD7A9"/>
<path d="M104.035 56.7665C107.333 52.7848 108.958 47.667 108.564 42.5C103.525 43.0322 98.8712 45.4541 95.5286 49.283C92.26 53.024 90.5589 58.0517 90.8805 63.0212C95.921 63.0734 100.876 60.7173 104.035 56.7665Z" fill="#FFD7A9"/>
<path d="M154.652 66V49.0898H160.652C162.332 49.0898 163.766 49.4219 164.953 50.0859C166.148 50.7422 167.062 51.6992 167.695 52.957C168.336 54.207 168.656 55.7188 168.656 57.4922V57.5156C168.656 59.2969 168.336 60.8242 167.695 62.0977C167.062 63.3633 166.152 64.332 164.965 65.0039C163.777 65.668 162.34 66 160.652 66H154.652ZM157.289 63.7266H160.395C161.59 63.7266 162.602 63.4883 163.43 63.0117C164.258 62.5352 164.887 61.8359 165.316 60.9141C165.746 59.9922 165.961 58.8672 165.961 57.5391V57.5156C165.961 56.1953 165.742 55.0781 165.305 54.1641C164.875 53.25 164.246 52.5547 163.418 52.0781C162.59 51.6016 161.582 51.3633 160.395 51.3633H157.289V63.7266ZM176.332 66.2461C175.113 66.2461 174.066 65.9844 173.191 65.4609C172.316 64.9375 171.645 64.1953 171.176 63.2344C170.707 62.2734 170.473 61.1406 170.473 59.8359V59.8242C170.473 58.5352 170.707 57.4062 171.176 56.4375C171.652 55.4609 172.316 54.7031 173.168 54.1641C174.027 53.625 175.035 53.3555 176.191 53.3555C177.348 53.3555 178.344 53.6172 179.18 54.1406C180.023 54.6562 180.672 55.3828 181.125 56.3203C181.578 57.25 181.805 58.3398 181.805 59.5898V60.457H171.75V58.6523H180.574L179.32 60.3281V59.3438C179.32 58.4609 179.188 57.7344 178.922 57.1641C178.656 56.5859 178.289 56.1562 177.82 55.875C177.359 55.5859 176.82 55.4414 176.203 55.4414C175.594 55.4414 175.047 55.5898 174.562 55.8867C174.086 56.1836 173.711 56.625 173.438 57.2109C173.164 57.7891 173.027 58.5 173.027 59.3438V60.3281C173.027 61.1328 173.164 61.8203 173.438 62.3906C173.711 62.9609 174.098 63.3984 174.598 63.7031C175.098 64.0078 175.691 64.1602 176.379 64.1602C176.887 64.1602 177.332 64.0859 177.715 63.9375C178.105 63.7812 178.426 63.5781 178.676 63.3281C178.934 63.0781 179.113 62.8047 179.215 62.5078L179.238 62.4141H181.676L181.641 62.543C181.539 63.0117 181.348 63.4688 181.066 63.9141C180.793 64.3516 180.43 64.75 179.977 65.1094C179.523 65.4609 178.992 65.7383 178.383 65.9414C177.773 66.1445 177.09 66.2461 176.332 66.2461ZM188.59 66.2461C187.559 66.2461 186.672 66.0898 185.93 65.7773C185.188 65.4648 184.602 65.0273 184.172 64.4648C183.75 63.9023 183.496 63.25 183.41 62.5078L183.398 62.4258H185.93L185.941 62.5195C186.066 63.0664 186.348 63.4961 186.785 63.8086C187.223 64.1211 187.828 64.2773 188.602 64.2773C189.117 64.2773 189.555 64.2109 189.914 64.0781C190.281 63.9453 190.566 63.7578 190.77 63.5156C190.973 63.2656 191.074 62.9727 191.074 62.6367V62.625C191.074 62.2266 190.938 61.9023 190.664 61.6523C190.398 61.4023 189.926 61.1953 189.246 61.0312L187.23 60.5742C186.449 60.3867 185.797 60.1406 185.273 59.8359C184.758 59.5234 184.371 59.1406 184.113 58.6875C183.855 58.2344 183.727 57.707 183.727 57.1055V57.0938C183.727 56.3516 183.926 55.7031 184.324 55.1484C184.73 54.5859 185.293 54.1484 186.012 53.8359C186.738 53.5156 187.578 53.3555 188.531 53.3555C189.5 53.3555 190.336 53.5195 191.039 53.8477C191.75 54.1758 192.305 54.6172 192.703 55.1719C193.102 55.7266 193.32 56.3555 193.359 57.0586L193.371 57.1758H190.98L190.969 57.0938C190.891 56.5703 190.641 56.1445 190.219 55.8164C189.805 55.4883 189.238 55.3242 188.52 55.3242C188.066 55.3242 187.668 55.3945 187.324 55.5352C186.988 55.668 186.727 55.8555 186.539 56.0977C186.359 56.3398 186.27 56.6289 186.27 56.9648V56.9766C186.27 57.2266 186.332 57.4531 186.457 57.6562C186.582 57.8594 186.781 58.0352 187.055 58.1836C187.328 58.332 187.688 58.4609 188.133 58.5703L190.148 59.0273C191.398 59.3164 192.293 59.7305 192.832 60.2695C193.379 60.8008 193.652 61.5117 193.652 62.4023V62.4141C193.652 63.1719 193.434 63.8398 192.996 64.418C192.559 64.9883 191.957 65.4375 191.191 65.7656C190.434 66.0859 189.566 66.2461 188.59 66.2461ZM201.129 66.2461C199.926 66.2461 198.883 65.9844 198 65.4609C197.117 64.9297 196.438 64.1836 195.961 63.2227C195.484 62.2539 195.246 61.1094 195.246 59.7891V59.7773C195.246 58.4648 195.488 57.3281 195.973 56.3672C196.457 55.4062 197.137 54.6641 198.012 54.1406C198.887 53.6172 199.918 53.3555 201.105 53.3555C202.168 53.3555 203.082 53.5586 203.848 53.9648C204.613 54.3633 205.215 54.8906 205.652 55.5469C206.098 56.2031 206.359 56.9219 206.438 57.7031L206.449 57.7969H204.023L204 57.7031C203.867 57.0938 203.559 56.5742 203.074 56.1445C202.598 55.707 201.945 55.4883 201.117 55.4883C200.461 55.4883 199.887 55.6641 199.395 56.0156C198.902 56.3594 198.52 56.8555 198.246 57.5039C197.98 58.1445 197.848 58.9062 197.848 59.7891V59.8008C197.848 60.707 197.984 61.4844 198.258 62.1328C198.531 62.7734 198.914 63.2656 199.406 63.6094C199.898 63.9453 200.473 64.1133 201.129 64.1133C201.918 64.1133 202.555 63.9141 203.039 63.5156C203.523 63.1172 203.844 62.582 204 61.9102L204.023 61.8281L206.461 61.8164L206.449 61.9102C206.348 62.7305 206.066 63.4688 205.605 64.125C205.145 64.7812 204.535 65.3008 203.777 65.6836C203.02 66.0586 202.137 66.2461 201.129 66.2461ZM212.051 66.2227C211.238 66.2227 210.52 66.0664 209.895 65.7539C209.27 65.4414 208.781 65.0039 208.43 64.4414C208.086 63.8789 207.914 63.2266 207.914 62.4844V62.4609C207.914 61.7344 208.094 61.1094 208.453 60.5859C208.82 60.0625 209.348 59.6484 210.035 59.3438C210.723 59.0391 211.555 58.8555 212.531 58.793L217.195 58.5234V60.3047L212.871 60.5742C212.09 60.6211 211.492 60.8047 211.078 61.125C210.672 61.4375 210.469 61.8594 210.469 62.3906V62.4141C210.469 62.9609 210.676 63.3945 211.09 63.7148C211.512 64.0273 212.062 64.1836 212.742 64.1836C213.344 64.1836 213.883 64.0625 214.359 63.8203C214.836 63.5703 215.211 63.2344 215.484 62.8125C215.758 62.3828 215.895 61.9023 215.895 61.3711V57.6328C215.895 56.9531 215.68 56.4219 215.25 56.0391C214.828 55.6562 214.219 55.4648 213.422 55.4648C212.695 55.4648 212.109 55.6172 211.664 55.9219C211.227 56.2188 210.949 56.6094 210.832 57.0938L210.809 57.1875H208.406L208.418 57.0586C208.488 56.3555 208.734 55.7266 209.156 55.1719C209.578 54.6094 210.156 54.168 210.891 53.8477C211.633 53.5195 212.504 53.3555 213.504 53.3555C214.52 53.3555 215.395 53.5234 216.129 53.8594C216.871 54.1953 217.441 54.6719 217.84 55.2891C218.238 55.9062 218.438 56.6328 218.438 57.4688V66H215.895V64.0898H215.824C215.582 64.5195 215.27 64.8945 214.887 65.2148C214.512 65.5352 214.082 65.7852 213.598 65.9648C213.113 66.1367 212.598 66.2227 212.051 66.2227ZM214.184 52.1367H212.32L214.371 48.3867H216.879L214.184 52.1367ZM221.098 66V53.6016H223.652V55.6758H223.734C223.93 54.957 224.281 54.3945 224.789 53.9883C225.305 53.5742 225.93 53.3672 226.664 53.3672C226.852 53.3672 227.027 53.3789 227.191 53.4023C227.355 53.418 227.488 53.4375 227.59 53.4609V55.8281C227.465 55.7812 227.297 55.7461 227.086 55.7227C226.875 55.6914 226.645 55.6758 226.395 55.6758C225.84 55.6758 225.355 55.793 224.941 56.0273C224.527 56.2617 224.207 56.5977 223.98 57.0352C223.762 57.4727 223.652 57.9961 223.652 58.6055V66H221.098ZM234.223 70.3711C233.168 70.3711 232.246 70.2227 231.457 69.9258C230.668 69.6289 230.035 69.2227 229.559 68.707C229.09 68.1992 228.797 67.625 228.68 66.9844L228.668 66.8906H231.199L231.234 66.9727C231.391 67.3711 231.727 67.6953 232.242 67.9453C232.758 68.2031 233.418 68.332 234.223 68.332C235.23 68.332 236.008 68.082 236.555 67.582C237.109 67.0898 237.387 66.4141 237.387 65.5547V63.7148H237.305C237.062 64.168 236.75 64.5586 236.367 64.8867C235.984 65.207 235.543 65.457 235.043 65.6367C234.551 65.8086 234.008 65.8945 233.414 65.8945C232.375 65.8945 231.465 65.6406 230.684 65.1328C229.91 64.6172 229.309 63.8906 228.879 62.9531C228.457 62.0156 228.246 60.918 228.246 59.6602V59.6484C228.246 58.3672 228.461 57.2578 228.891 56.3203C229.328 55.3828 229.934 54.6562 230.707 54.1406C231.488 53.625 232.406 53.3672 233.461 53.3672C234.047 53.3672 234.582 53.4648 235.066 53.6602C235.559 53.8477 235.992 54.1172 236.367 54.4688C236.75 54.8203 237.062 55.2305 237.305 55.6992H237.375V53.6016H239.93V65.6719C239.93 66.6172 239.695 67.4414 239.227 68.1445C238.766 68.8477 238.109 69.3945 237.258 69.7852C236.406 70.1758 235.395 70.3711 234.223 70.3711ZM234.129 63.8203C234.785 63.8203 235.355 63.6523 235.84 63.3164C236.332 62.9727 236.715 62.4883 236.988 61.8633C237.262 61.2383 237.398 60.5117 237.398 59.6836V59.6719C237.398 58.8359 237.262 58.1094 236.988 57.4922C236.715 56.875 236.332 56.3984 235.84 56.0625C235.355 55.7188 234.785 55.5469 234.129 55.5469C233.457 55.5469 232.875 55.7148 232.383 56.0508C231.891 56.3867 231.512 56.8633 231.246 57.4805C230.98 58.0977 230.848 58.8242 230.848 59.6602V59.6836C230.848 60.5273 230.977 61.2617 231.234 61.8867C231.5 62.5039 231.879 62.9805 232.371 63.3164C232.871 63.6523 233.457 63.8203 234.129 63.8203ZM246.246 66.2227C245.434 66.2227 244.715 66.0664 244.09 65.7539C243.465 65.4414 242.977 65.0039 242.625 64.4414C242.281 63.8789 242.109 63.2266 242.109 62.4844V62.4609C242.109 61.7344 242.289 61.1094 242.648 60.5859C243.016 60.0625 243.543 59.6484 244.23 59.3438C244.918 59.0391 245.75 58.8555 246.727 58.793L251.391 58.5234V60.3047L247.066 60.5742C246.285 60.6211 245.688 60.8047 245.273 61.125C244.867 61.4375 244.664 61.8594 244.664 62.3906V62.4141C244.664 62.9609 244.871 63.3945 245.285 63.7148C245.707 64.0273 246.258 64.1836 246.938 64.1836C247.539 64.1836 248.078 64.0625 248.555 63.8203C249.031 63.5703 249.406 63.2344 249.68 62.8125C249.953 62.3828 250.09 61.9023 250.09 61.3711V57.6328C250.09 56.9531 249.875 56.4219 249.445 56.0391C249.023 55.6562 248.414 55.4648 247.617 55.4648C246.891 55.4648 246.305 55.6172 245.859 55.9219C245.422 56.2188 245.145 56.6094 245.027 57.0938L245.004 57.1875H242.602L242.613 57.0586C242.684 56.3555 242.93 55.7266 243.352 55.1719C243.773 54.6094 244.352 54.168 245.086 53.8477C245.828 53.5195 246.699 53.3555 247.699 53.3555C248.715 53.3555 249.59 53.5234 250.324 53.8594C251.066 54.1953 251.637 54.6719 252.035 55.2891C252.434 55.9062 252.633 56.6328 252.633 57.4688V66H250.09V64.0898H250.02C249.777 64.5195 249.465 64.8945 249.082 65.2148C248.707 65.5352 248.277 65.7852 247.793 65.9648C247.309 66.1367 246.793 66.2227 246.246 66.2227ZM255.398 66V48.9375H257.941V66H255.398ZM266.086 66.2461C264.898 66.2461 263.863 65.9883 262.98 65.4727C262.098 64.9492 261.41 64.207 260.918 63.2461C260.434 62.2773 260.191 61.1289 260.191 59.8008V59.7773C260.191 58.457 260.434 57.3164 260.918 56.3555C261.41 55.3945 262.098 54.6562 262.98 54.1406C263.863 53.6172 264.895 53.3555 266.074 53.3555C267.262 53.3555 268.297 53.6172 269.18 54.1406C270.062 54.6562 270.746 55.3945 271.23 56.3555C271.723 57.3086 271.969 58.4492 271.969 59.7773V59.8008C271.969 61.1367 271.723 62.2852 271.23 63.2461C270.746 64.207 270.062 64.9492 269.18 65.4727C268.305 65.9883 267.273 66.2461 266.086 66.2461ZM266.098 64.1133C266.77 64.1133 267.348 63.9453 267.832 63.6094C268.324 63.2656 268.703 62.7734 268.969 62.1328C269.234 61.4922 269.367 60.7148 269.367 59.8008V59.7773C269.367 58.8711 269.23 58.0977 268.957 57.457C268.691 56.8164 268.312 56.3281 267.82 55.9922C267.328 55.6562 266.746 55.4883 266.074 55.4883C265.418 55.4883 264.84 55.6602 264.34 56.0039C263.848 56.3398 263.465 56.8281 263.191 57.4688C262.926 58.1016 262.793 58.8711 262.793 59.7773V59.8008C262.793 60.7148 262.926 61.4922 263.191 62.1328C263.465 62.7734 263.848 63.2656 264.34 63.6094C264.832 63.9453 265.418 64.1133 266.098 64.1133ZM284.59 66.2461C283.371 66.2461 282.324 65.9844 281.449 65.4609C280.574 64.9375 279.902 64.1953 279.434 63.2344C278.965 62.2734 278.73 61.1406 278.73 59.8359V59.8242C278.73 58.5352 278.965 57.4062 279.434 56.4375C279.91 55.4609 280.574 54.7031 281.426 54.1641C282.285 53.625 283.293 53.3555 284.449 53.3555C285.605 53.3555 286.602 53.6172 287.438 54.1406C288.281 54.6562 288.93 55.3828 289.383 56.3203C289.836 57.25 290.062 58.3398 290.062 59.5898V60.457H280.008V58.6523H288.832L287.578 60.3281V59.3438C287.578 58.4609 287.445 57.7344 287.18 57.1641C286.914 56.5859 286.547 56.1562 286.078 55.875C285.617 55.5859 285.078 55.4414 284.461 55.4414C283.852 55.4414 283.305 55.5898 282.82 55.8867C282.344 56.1836 281.969 56.625 281.695 57.2109C281.422 57.7891 281.285 58.5 281.285 59.3438V60.3281C281.285 61.1328 281.422 61.8203 281.695 62.3906C281.969 62.9609 282.355 63.3984 282.855 63.7031C283.355 64.0078 283.949 64.1602 284.637 64.1602C285.145 64.1602 285.59 64.0859 285.973 63.9375C286.363 63.7812 286.684 63.5781 286.934 63.3281C287.191 63.0781 287.371 62.8047 287.473 62.5078L287.496 62.4141H289.934L289.898 62.543C289.797 63.0117 289.605 63.4688 289.324 63.9141C289.051 64.3516 288.688 64.75 288.234 65.1094C287.781 65.4609 287.25 65.7383 286.641 65.9414C286.031 66.1445 285.348 66.2461 284.59 66.2461ZM292.207 66V53.6016H294.762V55.4766H294.844C295.164 54.8359 295.637 54.3242 296.262 53.9414C296.895 53.5508 297.676 53.3555 298.605 53.3555C299.973 53.3555 301.027 53.7656 301.77 54.5859C302.52 55.4062 302.895 56.5352 302.895 57.9727V66H300.34V58.4766C300.34 57.5234 300.121 56.7969 299.684 56.2969C299.246 55.7969 298.586 55.5469 297.703 55.5469C297.109 55.5469 296.59 55.6797 296.145 55.9453C295.707 56.2109 295.367 56.5859 295.125 57.0703C294.883 57.5469 294.762 58.1094 294.762 58.7578V66H292.207ZM315.996 66.2461C314.777 66.2461 313.73 65.9844 312.855 65.4609C311.98 64.9375 311.309 64.1953 310.84 63.2344C310.371 62.2734 310.137 61.1406 310.137 59.8359V59.8242C310.137 58.5352 310.371 57.4062 310.84 56.4375C311.316 55.4609 311.98 54.7031 312.832 54.1641C313.691 53.625 314.699 53.3555 315.855 53.3555C317.012 53.3555 318.008 53.6172 318.844 54.1406C319.688 54.6562 320.336 55.3828 320.789 56.3203C321.242 57.25 321.469 58.3398 321.469 59.5898V60.457H311.414V58.6523H320.238L318.984 60.3281V59.3438C318.984 58.4609 318.852 57.7344 318.586 57.1641C318.32 56.5859 317.953 56.1562 317.484 55.875C317.023 55.5859 316.484 55.4414 315.867 55.4414C315.258 55.4414 314.711 55.5898 314.227 55.8867C313.75 56.1836 313.375 56.625 313.102 57.2109C312.828 57.7891 312.691 58.5 312.691 59.3438V60.3281C312.691 61.1328 312.828 61.8203 313.102 62.3906C313.375 62.9609 313.762 63.3984 314.262 63.7031C314.762 64.0078 315.355 64.1602 316.043 64.1602C316.551 64.1602 316.996 64.0859 317.379 63.9375C317.77 63.7812 318.09 63.5781 318.34 63.3281C318.598 63.0781 318.777 62.8047 318.879 62.5078L318.902 62.4141H321.34L321.305 62.543C321.203 63.0117 321.012 63.4688 320.73 63.9141C320.457 64.3516 320.094 64.75 319.641 65.1094C319.188 65.4609 318.656 65.7383 318.047 65.9414C317.438 66.1445 316.754 66.2461 315.996 66.2461ZM323.719 66V48.9375H326.262V66H323.719Z" fill="#FFD7A9"/>
<path d="M153.635 122L166.452 86.7705H172.36L185.153 122H179.416L176.193 112.479H162.619L159.372 122H153.635ZM169.357 92.6055L164.084 108.084H174.704L169.455 92.6055H169.357ZM188.425 130.545V96.3164H193.698V100.735H193.82C195.358 97.6836 198.19 95.8281 201.853 95.8281C208.396 95.8281 212.595 100.955 212.595 109.158V109.183C212.595 117.361 208.371 122.513 201.926 122.513C198.288 122.513 195.334 120.657 193.82 117.679H193.698V130.545H188.425ZM200.485 117.972C204.636 117.972 207.224 114.603 207.224 109.183V109.158C207.224 103.689 204.611 100.345 200.485 100.345C196.481 100.345 193.674 103.812 193.674 109.158V109.183C193.674 114.505 196.506 117.972 200.485 117.972ZM216.696 130.545V96.3164H221.97V100.735H222.092C223.63 97.6836 226.462 95.8281 230.124 95.8281C236.667 95.8281 240.866 100.955 240.866 109.158V109.183C240.866 117.361 236.643 122.513 230.197 122.513C226.56 122.513 223.605 120.657 222.092 117.679H221.97V130.545H216.696ZM228.757 117.972C232.907 117.972 235.495 114.603 235.495 109.183V109.158C235.495 103.689 232.883 100.345 228.757 100.345C224.753 100.345 221.945 103.812 221.945 109.158V109.183C221.945 114.505 224.777 117.972 228.757 117.972ZM267.771 122.586C259.86 122.586 254.636 118.826 254.196 112.625L254.172 112.259H259.494L259.543 112.576C260.031 115.823 263.278 117.85 267.99 117.85C272.702 117.85 275.681 115.726 275.681 112.43V112.405C275.681 109.573 273.752 108.035 269.089 107.01L265.256 106.204C258.347 104.739 255.002 101.565 255.002 96.3408V96.3164C255.026 90.3105 260.324 86.1846 267.771 86.1846C275.119 86.1846 280.148 90.1885 280.515 96.0967L280.539 96.5117H275.217L275.192 96.1699C274.704 92.8984 271.872 90.9209 267.697 90.9209C263.327 90.9453 260.544 93.0205 260.544 96.0967V96.1211C260.544 98.7578 262.546 100.369 266.94 101.321L270.798 102.127C278.073 103.665 281.198 106.619 281.198 112.063V112.088C281.198 118.509 276.12 122.586 267.771 122.586ZM294.504 122.513C289.426 122.513 286.984 120.364 286.984 115.237V100.516H283.298V96.3164H286.984V89.627H292.38V96.3164H297.189V100.516H292.38V114.92C292.38 117.532 293.552 118.313 295.773 118.313C296.335 118.313 296.799 118.265 297.189 118.216V122.293C296.579 122.391 295.578 122.513 294.504 122.513ZM311.96 122.513C304.587 122.513 299.777 117.41 299.777 109.158V109.109C299.777 100.906 304.636 95.8281 311.936 95.8281C319.26 95.8281 324.143 100.882 324.143 109.109V109.158C324.143 117.435 319.309 122.513 311.96 122.513ZM311.984 118.094C316.11 118.094 318.747 114.822 318.747 109.158V109.109C318.747 103.494 316.062 100.247 311.936 100.247C307.883 100.247 305.173 103.494 305.173 109.109V109.158C305.173 114.847 307.858 118.094 311.984 118.094ZM328.22 122V96.3164H333.493V100.711H333.615C334.445 97.708 336.594 95.8281 339.523 95.8281C340.28 95.8281 340.939 95.9502 341.354 96.0234V100.931C340.939 100.76 340.012 100.638 338.986 100.638C335.593 100.638 333.493 102.859 333.493 106.692V122H328.22ZM354.465 122.513C346.921 122.513 342.355 117.361 342.355 109.256V109.231C342.355 101.199 346.994 95.8281 354.196 95.8281C361.398 95.8281 365.817 101.004 365.817 108.719V110.501H347.629C347.727 115.359 350.388 118.191 354.587 118.191C357.712 118.191 359.787 116.58 360.446 114.651L360.52 114.456H365.524L365.476 114.725C364.646 118.802 360.69 122.513 354.465 122.513ZM354.221 100.149C350.803 100.149 348.166 102.469 347.702 106.766H360.593C360.153 102.322 357.663 100.149 354.221 100.149Z" fill="#FFD7A9"/>
</svg>
