<svg width="488" height="174" viewBox="0 0 488 174" fill="none" xmlns="http://www.w3.org/2000/svg">
<rect width="487.2" height="174" rx="20" fill="#141414"/>
<path d="M60.5661 47.2471C59.5818 48.3023 59 49.9398 59 52.0603V127.824C59 129.948 59.5818 131.582 60.5661 132.637L60.8164 132.884L102.722 90.4424V89.9422V89.4421L60.8164 46.9971L60.5661 47.2471Z" fill="#FFD7A9" stroke="#141414" stroke-width="2.00256"/>
<path d="M116.687 104.594L102.721 90.4426V89.9424V89.4423L116.691 75.2939L117.005 75.4755L133.556 84.9991C138.281 87.7191 138.281 92.1692 133.556 94.8926L117.005 104.416L116.687 104.594Z" fill="#FFD7A9" stroke="#141414" stroke-width="2.00256"/>
<g filter="url(#filter0_i_2013_103)">
<path d="M117.006 104.413L102.718 89.9424L60.5664 132.637C62.1223 134.309 64.6964 134.515 67.5951 132.85L117.006 104.413Z" fill="#FFD7A9"/>
</g>
<path d="M117.006 104.413L102.718 89.9424L60.5664 132.637C62.1223 134.309 64.6964 134.515 67.5951 132.85L117.006 104.413Z" stroke="#141414" stroke-width="2.00256"/>
<path d="M117.006 75.4717L67.5951 47.038C64.6964 45.3697 62.1223 45.5787 60.5664 47.2504L102.722 89.9455L117.006 75.4717Z" fill="#FFD7A9" stroke="#141414" stroke-width="2.00256"/>
<path d="M154.96 65V47.816H160.444C163.06 47.816 165.164 48.6 166.756 50.168C168.356 51.736 169.156 53.808 169.156 56.384C169.156 58.976 168.36 61.06 166.768 62.636C165.176 64.212 163.068 65 160.444 65H154.96ZM157.576 62.576H160.372C162.276 62.584 163.772 62.044 164.86 60.956C165.956 59.86 166.504 58.34 166.504 56.396C166.504 54.468 165.956 52.968 164.86 51.896C163.764 50.816 162.268 50.276 160.372 50.276H157.576V62.576ZM171.999 65V47.816H174.639V65H171.999ZM183.33 65.384C182.306 65.384 181.398 65.22 180.606 64.892C179.822 64.564 179.174 64.112 178.662 63.536C178.158 62.96 177.778 62.352 177.522 61.712C177.266 61.072 177.138 60.752 177.138 60.752L179.502 59.792C179.502 59.792 179.602 60.036 179.802 60.524C180.01 61.004 180.282 61.44 180.618 61.832C180.954 62.224 181.362 62.528 181.842 62.744C182.33 62.952 182.878 63.056 183.486 63.056C184.438 63.056 185.21 62.808 185.802 62.312C186.394 61.808 186.69 61.152 186.69 60.344C186.69 59.68 186.418 59.104 185.874 58.616C185.33 58.128 184.302 57.632 182.79 57.128C180.926 56.512 179.622 55.804 178.878 55.004C178.142 54.204 177.774 53.228 177.774 52.076C177.774 50.764 178.29 49.664 179.322 48.776C180.362 47.88 181.694 47.432 183.318 47.432C184.19 47.432 184.966 47.56 185.646 47.816C186.334 48.064 186.922 48.424 187.41 48.896C187.898 49.368 188.254 49.836 188.478 50.3C188.702 50.756 188.814 50.984 188.814 50.984L186.51 51.956C186.51 51.956 186.442 51.816 186.306 51.536C186.17 51.248 185.95 50.956 185.646 50.66C185.342 50.364 184.99 50.14 184.59 49.988C184.198 49.836 183.746 49.76 183.234 49.76C182.394 49.76 181.706 49.964 181.17 50.372C180.642 50.772 180.378 51.304 180.378 51.968C180.378 52.52 180.598 53.012 181.038 53.444C181.478 53.876 182.594 54.388 184.386 54.98C186.058 55.516 187.29 56.224 188.082 57.104C188.874 57.976 189.27 59.032 189.27 60.272C189.27 61.848 188.714 63.096 187.602 64.016C186.49 64.928 185.066 65.384 183.33 65.384ZM191.921 65V47.816H197.957C199.661 47.816 201.037 48.336 202.085 49.376C203.133 50.408 203.657 51.776 203.657 53.48C203.657 55.168 203.113 56.504 202.025 57.488C200.945 58.472 199.557 58.964 197.861 58.964H193.337V56.648H197.789C198.757 56.648 199.537 56.36 200.129 55.784C200.721 55.208 201.017 54.448 201.017 53.504C201.017 52.536 200.729 51.748 200.153 51.14C199.577 50.532 198.821 50.228 197.885 50.228H194.537V65H191.921ZM214.162 65.384C211.682 65.384 209.586 64.532 207.874 62.828C206.17 61.116 205.318 58.968 205.318 56.384C205.318 53.792 206.174 51.652 207.886 49.964C209.606 48.276 211.698 47.432 214.162 47.432C216.626 47.432 218.714 48.276 220.426 49.964C222.146 51.652 223.006 53.792 223.006 56.384C223.006 58.944 222.154 61.084 220.45 62.804C218.746 64.524 216.65 65.384 214.162 65.384ZM214.162 62.876C215.93 62.876 217.406 62.264 218.59 61.04C219.774 59.808 220.366 58.256 220.366 56.384C220.366 54.496 219.77 52.952 218.578 51.752C217.386 50.544 215.914 49.94 214.162 49.94C212.41 49.94 210.938 50.548 209.746 51.764C208.554 52.972 207.958 54.512 207.958 56.384C207.958 58.256 208.55 59.808 209.734 61.04C210.918 62.264 212.394 62.876 214.162 62.876ZM225.858 65V47.816H228.786L236.838 60.488H236.91L236.826 57.356V47.816H239.406V65H236.874L228.414 51.764H228.342L228.438 54.884V65H225.858ZM243.108 65V47.816H245.748V65H243.108ZM249.46 65V47.816H256.036C257.428 47.816 258.608 48.248 259.576 49.112C260.544 49.976 261.028 51.06 261.028 52.364C261.028 53.228 260.812 53.98 260.38 54.62C259.948 55.252 259.36 55.736 258.616 56.072V56.156C259.512 56.436 260.236 56.932 260.788 57.644C261.34 58.348 261.616 59.168 261.616 60.104C261.616 61.496 261.116 62.66 260.116 63.596C259.116 64.532 257.884 65 256.42 65H249.46ZM252.076 62.696H256.204C256.98 62.696 257.632 62.432 258.16 61.904C258.696 61.368 258.964 60.724 258.964 59.972C258.964 59.22 258.684 58.588 258.124 58.076C257.572 57.564 256.904 57.308 256.12 57.308H251.128V55.16H255.796C256.564 55.16 257.2 54.912 257.704 54.416C258.208 53.92 258.46 53.328 258.46 52.64C258.46 51.952 258.212 51.364 257.716 50.876C257.22 50.388 256.6 50.144 255.856 50.144H252.076V62.696ZM264.342 65V47.816H266.958V62.528H274.422V65H264.342ZM276.928 65V47.816H286.96V50.276H279.52V62.54H287.092V65H276.928ZM278.344 57.56V55.256H286.552V57.56H278.344ZM295.866 65V47.816H305.898V50.276H298.458V62.54H306.03V65H295.866ZM297.282 57.56V55.256H305.49V57.56H297.282ZM309.436 65V47.816H312.364L320.416 60.488H320.488L320.404 57.356V47.816H322.984V65H320.452L311.992 51.764H311.92L312.016 54.884V65H309.436Z" fill="#FFD7A9"/>
<path d="M171.508 122.586C161.425 122.586 155.077 115.555 155.077 104.227V104.202C155.077 93.0938 161.425 86.1846 171.435 86.1846C179.687 86.1846 184.862 90.9453 186.327 97.293L186.425 97.7324H180.81L180.736 97.4639C179.247 93.3867 176.049 91.0186 171.459 91.0186C164.721 91.0186 160.644 95.9258 160.644 104.178V104.202C160.644 112.625 164.843 117.752 171.557 117.752C177.27 117.752 181.225 114.139 181.298 108.792V108.206H172.045V103.738H186.693V107.352C186.693 116.897 181.054 122.586 171.508 122.586ZM202.44 122.513C195.067 122.513 190.258 117.41 190.258 109.158V109.109C190.258 100.906 195.116 95.8281 202.416 95.8281C209.74 95.8281 214.623 100.882 214.623 109.109V109.158C214.623 117.435 209.789 122.513 202.44 122.513ZM202.465 118.094C206.591 118.094 209.228 114.822 209.228 109.158V109.109C209.228 103.494 206.542 100.247 202.416 100.247C198.363 100.247 195.653 103.494 195.653 109.109V109.158C195.653 114.847 198.339 118.094 202.465 118.094ZM229.735 122.513C222.362 122.513 217.553 117.41 217.553 109.158V109.109C217.553 100.906 222.411 95.8281 229.711 95.8281C237.035 95.8281 241.918 100.882 241.918 109.109V109.158C241.918 117.435 237.084 122.513 229.735 122.513ZM229.76 118.094C233.886 118.094 236.522 114.822 236.522 109.158V109.109C236.522 103.494 233.837 100.247 229.711 100.247C225.658 100.247 222.948 103.494 222.948 109.109V109.158C222.948 114.847 225.634 118.094 229.76 118.094ZM257.25 131.058C250.658 131.058 246.483 128.006 245.702 124.075L245.678 123.855H250.902L251 124.051C251.708 125.687 253.93 126.81 257.226 126.81C261.425 126.81 263.744 124.563 263.744 120.975V117.459H263.622C262.157 120.242 259.228 122.024 255.541 122.024C249.096 122.024 244.848 116.971 244.848 108.963V108.938C244.848 100.882 249.145 95.8281 255.663 95.8281C259.276 95.8281 262.108 97.7812 263.622 100.687H263.744V96.3164H269.042V121.292C269.042 127.151 264.501 131.058 257.25 131.058ZM257.03 117.728C261.059 117.728 263.744 114.334 263.744 109.036V109.012C263.744 103.738 261.034 100.345 257.03 100.345C252.855 100.345 250.243 103.714 250.243 109.012V109.036C250.243 114.407 252.855 117.728 257.03 117.728ZM274.462 122V86.7705H279.735V122H274.462ZM296.117 122.513C288.573 122.513 284.008 117.361 284.008 109.256V109.231C284.008 101.199 288.646 95.8281 295.849 95.8281C303.051 95.8281 307.47 101.004 307.47 108.719V110.501H289.281C289.379 115.359 292.04 118.191 296.239 118.191C299.364 118.191 301.439 116.58 302.099 114.651L302.172 114.456H307.177L307.128 114.725C306.298 118.802 302.343 122.513 296.117 122.513ZM295.873 100.149C292.455 100.149 289.818 102.469 289.354 106.766H302.245C301.806 102.322 299.315 100.149 295.873 100.149ZM322.362 122V86.7705H335.473C342.382 86.7705 347.167 91.4092 347.167 98.3184V98.3672C347.167 105.252 342.382 109.964 335.473 109.964H327.831V122H322.362ZM334.105 91.3848H327.831V105.374H334.105C338.866 105.374 341.601 102.811 341.601 98.3916V98.3428C341.601 93.9482 338.866 91.3848 334.105 91.3848ZM351.513 122V86.7705H356.786V122H351.513ZM369.75 122.464C364.623 122.464 361.181 119.314 361.181 114.7V114.651C361.181 110.184 364.647 107.449 370.727 107.083L377.709 106.668V104.739C377.709 101.907 375.878 100.198 372.606 100.198C369.555 100.198 367.675 101.639 367.235 103.689L367.187 103.909H362.206L362.23 103.641C362.597 99.2217 366.43 95.8281 372.753 95.8281C379.027 95.8281 383.007 99.1484 383.007 104.3V122H377.709V117.947H377.611C376.122 120.706 373.144 122.464 369.75 122.464ZM366.503 114.578C366.503 116.824 368.358 118.24 371.19 118.24C374.901 118.24 377.709 115.726 377.709 112.381V110.379L371.435 110.77C368.261 110.965 366.503 112.356 366.503 114.529V114.578ZM391.112 130.569C390.087 130.569 388.988 130.447 388.354 130.325V126.199C388.769 126.297 389.379 126.395 390.087 126.395C392.577 126.395 393.944 125.735 394.823 123.245L395.263 122.024L385.912 96.3164H391.625L398.095 117.215H398.266L404.735 96.3164H410.302L400.731 123.196C398.827 128.519 396.142 130.569 391.112 130.569Z" fill="#FFD7A9"/>
<defs>
<filter id="filter0_i_2013_103" x="59.1797" y="88.5176" width="59.4507" height="46.4824" filterUnits="userSpaceOnUse" color-interpolation-filters="sRGB">
<feFlood flood-opacity="0" result="BackgroundImageFix"/>
<feBlend mode="normal" in="SourceGraphic" in2="BackgroundImageFix" result="shape"/>
<feColorMatrix in="SourceAlpha" type="matrix" values="0 0 0 0 0 0 0 0 0 0 0 0 0 0 0 0 0 0 127 0" result="hardAlpha"/>
<feOffset dy="-0.150192"/>
<feComposite in2="hardAlpha" operator="arithmetic" k2="-1" k3="1"/>
<feColorMatrix type="matrix" values="0 0 0 0 0 0 0 0 0 0 0 0 0 0 0 0 0 0 0.08 0"/>
<feBlend mode="normal" in2="shape" result="effect1_innerShadow_2013_103"/>
</filter>
</defs>
</svg>
